<svg viewBox="0 0 2076.12 570.02" xmlns="http://www.w3.org/2000/svg"><defs><style>.cls-1,.cls-2,.cls-3,.cls-4,.cls-5,.cls-6{fill:#eb2227;fill-rule:evenodd;isolation:isolate;}.cls-1{opacity:0.99;}.cls-2{opacity:0.99;}.cls-3{opacity:0.99;}.cls-4{opacity:0.98;}.cls-5{opacity:0.99;}.cls-6{opacity:0.98;}</style></defs><g data-name="Layer 2" id="Layer_2"><g data-name="Layer 1" id="Layer_1-2"><path d="M323,.12q113-.49,226,1Q712.32,262,876,522.62q-118.5,1.26-237-.5Q480.33,261.47,323,.12Z" class="cls-1"></path><path d="M697,.12q146.5-.24,293,.5a1195.75,1195.75,0,0,1-115.5,149.5,1314.6,1314.6,0,0,1-133,126q-54-83.79-107.5-168A544.15,544.15,0,0,0,697,.12Z" class="cls-2"></path><path d="M961,131.12q551.51.91,1103,2.5,13.34,1.89,12,15.5a115,115,0,0,1-15.5,43q-5.13,8.76-11,17-45.07,53.59-93.5,104.5a177.55,177.55,0,0,1-84,41l-167,1q-44,54.51-88,109-90.51,1.26-181-.5,84.68-105.11,169-210.5l226-1,23-31q-305-1-610,0-97.07,120.57-193,242-95,1.26-190-.5,96-121.65,193-242.5-81.51-.24-163-1.5Q926,175.08,961,131.12Z" class="cls-3"></path><path d="M1259,253.12h194a4.93,4.93,0,0,1-.5,3q-35.43,42.61-70.5,85.5-96.49,1-193,0Q1224.36,297.54,1259,253.12Z" class="cls-4"></path><path d="M481,292.12a2.87,2.87,0,0,1,2.5,1q40.25,66.51,80.5,133a623.84,623.84,0,0,1-88,48.5q-227.07,101.52-476,95,247.25-61.83,435-231Q458.81,316.07,481,292.12Z" class="cls-5"></path><path d="M1157,383.12q144-.67,288,1.5-33.07,39.57-65,80-144.51,1.26-289-.5Q1124,423.61,1157,383.12Z" class="cls-6"></path></g></g></svg>